<svg id="visual" viewBox="0 0 540 540" width="540" height="540" xmlns="http://www.w3.org/2000/svg" xmlns:xlink="http://www.w3.org/1999/xlink" version="1.1"><rect x="0" y="0" width="540" height="540" fill="#fff0"></rect><g transform="translate(236.6168161011491 267.47020443669066)"><path d="M99.4 -161.2C144.2 -146.4 206.3 -150.7 237.8 -127C269.3 -103.3 270.2 -51.7 234.5 -20.6C198.9 10.5 126.7 21 109.7 69.7C92.6 118.4 130.7 205.4 121.6 224.1C112.5 242.9 56.3 193.4 4 186.6C-48.3 179.7 -96.7 215.4 -135.8 214C-174.9 212.6 -204.8 174 -191.3 132.2C-177.8 90.3 -120.9 45.2 -81.8 22.6C-42.7 0 -21.3 0 -30.2 -33.8C-39 -67.6 -78 -135.1 -78 -175.8C-78 -216.4 -39 -230.2 -5.8 -220.1C27.3 -210 54.7 -176 99.4 -161.2" fill="#f1ce99"></path></g></svg>