<svg id="visual" viewBox="0 0 540 960" width="540" height="960" xmlns="http://www.w3.org/2000/svg" xmlns:xlink="http://www.w3.org/1999/xlink" version="1.1"><rect x="0" y="0" width="540" height="960" fill="#ffffff"></rect><defs><linearGradient id="grad1_0" x1="0%" y1="0%" x2="100%" y2="100%"><stop offset="30%" stop-color="#ffffff" stop-opacity="1"></stop><stop offset="70%" stop-color="#ffffff" stop-opacity="1"></stop></linearGradient></defs><defs><linearGradient id="grad2_0" x1="0%" y1="0%" x2="100%" y2="100%"><stop offset="30%" stop-color="#ffffff" stop-opacity="1"></stop><stop offset="70%" stop-color="#ffffff" stop-opacity="1"></stop></linearGradient></defs><g transform="translate(540, 0)"><path d="M0 540C-27.1 506.7 -54.2 473.4 -94 472.7C-133.9 472 -186.5 503.9 -189 456.4C-191.6 408.9 -144.1 281.9 -180 269.4C-215.9 256.9 -335.3 358.9 -357.1 357.1C-378.8 355.2 -302.9 249.5 -320.9 214.5C-339 179.4 -451 214.9 -498.9 206.6C-546.8 198.4 -530.5 146.5 -526.7 104.8C-522.8 63 -531.4 31.5 -540 0L0 0Z" fill="#f1ce99"></path></g><g transform="translate(0, 960)"><path d="M0 -540C36.7 -531.5 73.4 -523 99.5 -500.2C125.6 -477.4 141.1 -440.4 183.7 -443.5C226.3 -446.5 295.9 -489.7 300 -449C304.1 -408.3 242.6 -283.8 234.8 -234.8C226.9 -185.7 272.7 -212 330.9 -221.1C389.1 -230.2 459.8 -222.1 471.2 -195.2C482.6 -168.2 434.8 -122.5 436.4 -86.8C438.1 -51.2 489 -25.6 540 0L0 0Z" fill="#f1ce99"></path></g></svg>